<?xml version="1.0"?><svg xmlns="http://www.w3.org/2000/svg" xmlns:xlink="http://www.w3.org/1999/xlink"><symbol viewBox="0 0 512 512" id="blogger" xmlns="http://www.w3.org/2000/svg"><path d="M437.022 74.984C388.67 26.63 324.381 0 256 0 187.624 0 123.338 26.63 74.984 74.984S0 187.624 0 256c0 68.388 26.63 132.678 74.984 181.028C123.335 485.375 187.621 512 256 512c68.385 0 132.673-26.625 181.021-74.972C485.372 388.679 512 324.389 512 256c0-68.377-26.628-132.664-74.978-181.016zm-11.314 350.73C380.381 471.039 320.111 496 256 496c-64.106 0-124.374-24.961-169.703-70.286C40.965 380.386 16 320.113 16 256c0-64.102 24.965-124.37 70.297-169.703C131.63 40.965 191.898 16 256 16c64.108 0 124.378 24.965 169.708 70.297C471.037 131.628 496 191.896 496 256c0 64.115-24.963 124.387-70.292 169.714z" data-original="#000000" class="aactive-path" data-old_color="#ffffff" fill="#fff"/><path d="M430.038 114.969a7.998 7.998 0 0 0-11.253-1.172 7.999 7.999 0 0 0-1.172 11.252C447.526 161.919 464 208.426 464 256c0 55.567-21.635 107.803-60.919 147.085C363.797 442.367 311.563 464 256 464c-51.26 0-100.505-18.807-138.663-52.956a8 8 0 0 0-10.67 11.922C147.763 459.745 200.797 480 256 480c59.837 0 116.089-23.297 158.394-65.601C456.701 372.095 480 315.84 480 256c0-51.233-17.744-101.319-49.962-141.031zM48 256c0-114.691 93.309-208 208-208 51.26 0 100.504 18.808 138.662 52.959a7.998 7.998 0 0 0 11.296-.625 8 8 0 0 0-.625-11.296C364.237 52.256 311.203 32 256 32c-59.829 0-116.08 23.301-158.389 65.611C55.301 139.921 32 196.171 32 256c0 51.239 17.744 101.328 49.963 141.038a7.983 7.983 0 0 0 6.217 2.96 8 8 0 0 0 6.208-13.041C64.474 350.088 48 303.58 48 256z" data-original="#000000" class="aactive-path" data-old_color="#ffffff" fill="#fff"/><path d="M378.664 233.281l-1.911-3.974a8 8 0 0 0-2.314-2.86l-3.178-2.458c-3.943-3.094-9.624-3.229-17.486-3.415-3.936-.093-11.188-.265-13.305-1.31-1.529-1.694-2.241-7.044-2.993-12.698l-.23-1.718c-2.031-15.696-3.585-19.434-6.155-24.69-.309-.631-.636-1.298-1.012-2.111-11.254-23.815-40.932-41.236-61.975-43.718a7.932 7.932 0 0 0-.937-.055h-50.41c-44.162 0-80.09 35.829-80.09 79.869v83.839c0 43.972 35.928 79.746 80.09 79.746h82.815c43.922 0 79.856-35.754 80.103-79.685l.445-58.073a7.948 7.948 0 0 0-.172-1.713l-.667-3.159a8.034 8.034 0 0 0-.618-1.817zm-14.989 64.655c-.197 35.174-28.954 63.791-64.103 63.791h-82.815c-35.339 0-64.09-28.596-64.09-63.746v-83.839c0-35.218 28.751-63.869 64.09-63.869h49.916c16.52 2.157 40.51 16.771 48.912 34.55.402.869.777 1.637 1.133 2.364 1.789 3.657 2.868 5.865 4.667 19.757l.232 1.732c1.223 9.188 2.278 17.124 8.232 22.571 5.393 4.892 14.622 5.11 23.547 5.321 2.826.067 6.983.166 8.65.52l1.107.856.673 1.4.289 1.367-.44 57.225z" data-original="#000000" class="aactive-path" data-old_color="#ffffff" fill="#fff"/><path d="M217.67 236.456h39.972c12.025 0 21.808-9.755 21.808-21.746 0-11.978-9.783-21.723-21.808-21.723H217.67c-12.019 0-21.796 9.745-21.796 21.723 0 11.991 9.777 21.746 21.796 21.746zm0-27.468h39.972c3.203 0 5.808 2.567 5.808 5.723 0 3.114-2.66 5.746-5.808 5.746H217.67c-3.142 0-5.796-2.631-5.796-5.746 0-3.156 2.6-5.723 5.796-5.723zM298.881 275.247H217.67c-12.019 0-21.796 9.722-21.796 21.672 0 11.951 9.777 21.673 21.796 21.673h81.211c11.985 0 21.735-9.722 21.735-21.673 0-11.95-9.75-21.672-21.735-21.672zm0 27.345H217.67c-3.142 0-5.796-2.598-5.796-5.673 0-3.128 2.6-5.672 5.796-5.672h81.211c3.163 0 5.735 2.544 5.735 5.672 0 3.076-2.626 5.673-5.735 5.673z" data-original="#000000" class="aactive-path" data-old_color="#ffffff" fill="#fff"/></symbol><symbol viewBox="0 0 512 512" id="facebook" xmlns="http://www.w3.org/2000/svg"><path d="M222.892 388h51.491a8 8 0 0 0 8-8V264.093h26.751a8 8 0 0 0 7.958-7.18l4.51-43.772a7.997 7.997 0 0 0-2.019-6.179 7.997 7.997 0 0 0-5.939-2.641h-31.261v-17.73c0-3.662 1.159-3.936 2.928-3.936h27.682a8 8 0 0 0 8-8v-42.5a8 8 0 0 0-7.968-8L274.848 124c-26.752 0-41.029 11.77-48.295 21.643-10.146 13.787-11.661 29.941-11.661 38.343v20.334h-16.489a8 8 0 0 0-8 8v43.772a8 8 0 0 0 8 8h16.489V380a8 8 0 0 0 8 8zm-16.49-139.907v-27.772h16.489a8 8 0 0 0 8-8v-28.334c0-5.185.833-18.376 8.547-28.86 7.386-10.037 19.3-15.126 35.376-15.126l30.177.122v26.533h-19.682c-9.421 0-18.928 6.164-18.928 19.936v25.73a8 8 0 0 0 8 8h30.395l-2.862 27.772h-27.533a8 8 0 0 0-8 8V372H230.89V256.093a8 8 0 0 0-8-8h-16.488z" data-original="#000000" class="bactive-path" data-old_color="#ffffff" fill="#fff"/><path d="M437.022 74.984C388.67 26.63 324.381 0 256 0 187.624 0 123.338 26.63 74.984 74.984S0 187.624 0 256c0 68.388 26.63 132.678 74.984 181.028C123.335 485.375 187.621 512 256 512c68.385 0 132.673-26.625 181.021-74.972C485.372 388.679 512 324.389 512 256c0-68.378-26.628-132.664-74.978-181.016zm-11.314 350.73C380.381 471.039 320.111 496 256 496c-64.106 0-124.374-24.961-169.703-70.286C40.965 380.386 16 320.113 16 256c0-64.102 24.965-124.37 70.297-169.702C131.63 40.965 191.898 16 256 16c64.108 0 124.378 24.965 169.708 70.297C471.037 131.628 496 191.896 496 256c0 64.115-24.963 124.387-70.292 169.714z" data-original="#000000" class="bactive-path" data-old_color="#ffffff" fill="#fff"/><path d="M430.038 114.969a7.998 7.998 0 0 0-11.253-1.172 7.999 7.999 0 0 0-1.172 11.252C447.526 161.919 464 208.425 464 256c0 55.567-21.635 107.803-60.919 147.086C363.797 442.367 311.563 464 256 464c-51.26 0-100.505-18.807-138.663-52.956a8 8 0 0 0-10.67 11.922C147.763 459.745 200.797 480 256 480c59.837 0 116.089-23.297 158.394-65.601C456.701 372.094 480 315.84 480 256c0-51.234-17.744-101.319-49.962-141.031zM48 256c0-114.691 93.309-208 208-208 51.26 0 100.504 18.808 138.662 52.959a8 8 0 0 0 11.296-.625 8 8 0 0 0-.625-11.296C364.237 52.256 311.203 32 256 32c-59.829 0-116.079 23.301-158.389 65.611C55.301 139.92 32 196.171 32 256c0 51.24 17.744 101.328 49.963 141.038a7.983 7.983 0 0 0 6.217 2.96 8 8 0 0 0 6.208-13.041C64.474 350.088 48 303.58 48 256z" data-original="#000000" class="bactive-path" data-old_color="#ffffff" fill="#fff"/></symbol><symbol viewBox="0 0 512 512" id="rss" xmlns="http://www.w3.org/2000/svg"><path d="M437.022 74.984C388.67 26.63 324.381 0 256 0 187.624 0 123.338 26.63 74.984 74.984S0 187.624 0 256c0 68.388 26.63 132.678 74.984 181.028C123.335 485.375 187.621 512 256 512c68.385 0 132.673-26.625 181.021-74.972C485.372 388.679 512 324.389 512 256c0-68.377-26.628-132.664-74.978-181.016zm-11.314 350.73C380.381 471.039 320.111 496 256 496c-64.106 0-124.374-24.961-169.703-70.286C40.965 380.386 16 320.113 16 256c0-64.102 24.965-124.37 70.297-169.703C131.63 40.965 191.898 16 256 16c64.108 0 124.378 24.965 169.708 70.297C471.037 131.628 496 191.896 496 256c0 64.115-24.963 124.387-70.292 169.714z" data-original="#000000" class="cactive-path" data-old_color="#ffffff" fill="#fff"/><path d="M430.038 114.969a7.999 7.999 0 0 0-11.253-1.172 7.999 7.999 0 0 0-1.172 11.252C447.526 161.919 464 208.426 464 256c0 55.567-21.635 107.803-60.919 147.085C363.797 442.367 311.563 464 256 464c-51.26 0-100.505-18.807-138.663-52.956a8 8 0 0 0-10.67 11.922C147.763 459.745 200.797 480 256 480c59.837 0 116.089-23.297 158.394-65.601C456.701 372.095 480 315.84 480 256c0-51.233-17.744-101.319-49.962-141.031zM48 256c0-114.691 93.309-208 208-208 51.26 0 100.504 18.808 138.662 52.959a7.998 7.998 0 0 0 11.296-.625 8 8 0 0 0-.625-11.296C364.237 52.256 311.203 32 256 32c-59.829 0-116.08 23.301-158.389 65.611C55.301 139.921 32 196.171 32 256c0 51.239 17.744 101.328 49.963 141.038a7.983 7.983 0 0 0 6.217 2.96 8 8 0 0 0 6.208-13.041C64.474 350.088 48 303.58 48 256z" data-original="#000000" class="cactive-path" data-old_color="#ffffff" fill="#fff"/><path d="M340.086 367.902h42.906a8 8 0 0 0 8-8C390.992 232.031 287.407 128 160.083 128a8 8 0 0 0-8 8v42.918a8 8 0 0 0 8 8c94.843 0 172.003 77.6 172.003 172.983a8 8 0 0 0 8 8.001zM168.083 171.087v-26.94c112.167 4.141 202.652 95.066 206.763 207.754H347.92c-4.07-97.843-82.508-176.693-179.837-180.814z" data-original="#000000" class="cactive-path" data-old_color="#ffffff" fill="#fff"/><path d="M256.296 359.846a8 8 0 0 0 8 8h42.905a8 8 0 0 0 8-8c0-85.879-69.61-155.748-155.173-155.748a8 8 0 0 0-8 8v42.905a8 8 0 0 0 8 8c25.728 0 49.883 10.05 68.022 28.306 18.215 18.292 28.246 42.632 28.246 68.537zm-88.268-139.52c70.396 4.024 126.954 60.829 130.948 131.52H272.02c-1.878-27.151-13.298-52.41-32.626-71.82-19.269-19.392-44.365-30.85-71.366-32.743v-26.957z" data-original="#000000" class="cactive-path" data-old_color="#ffffff" fill="#fff"/><path d="M152 329.926c0 20.809 16.916 37.737 37.709 37.737 20.808 0 37.737-16.929 37.737-37.737 0-20.8-16.929-37.722-37.737-37.722-20.793 0-37.709 16.922-37.709 37.722zm59.446 0c0 11.986-9.751 21.737-21.737 21.737-11.97 0-21.709-9.751-21.709-21.737 0-11.978 9.739-21.722 21.709-21.722 11.986 0 21.737 9.745 21.737 21.722z" data-original="#000000" class="cactive-path" data-old_color="#ffffff" fill="#fff"/></symbol><symbol viewBox="0 0 512 512" id="twitter" xmlns="http://www.w3.org/2000/svg"><path d="M437.022 74.984C388.67 26.63 324.381 0 256 0 187.624 0 123.338 26.63 74.984 74.984S0 187.624 0 256c0 68.388 26.63 132.678 74.984 181.028C123.335 485.375 187.621 512 256 512c68.385 0 132.673-26.625 181.021-74.972C485.372 388.679 512 324.389 512 256c0-68.377-26.628-132.664-74.978-181.016zm-11.314 350.73C380.381 471.039 320.111 496 256 496c-64.106 0-124.374-24.961-169.703-70.286C40.965 380.386 16 320.113 16 256c0-64.102 24.965-124.37 70.297-169.703C131.63 40.965 191.898 16 256 16c64.108 0 124.378 24.965 169.708 70.297C471.037 131.628 496 191.896 496 256c0 64.115-24.963 124.387-70.292 169.714z" data-original="#000000" class="dactive-path" data-old_color="#ffffff" fill="#fff"/><path d="M430.038 114.969a7.999 7.999 0 0 0-11.253-1.172 7.999 7.999 0 0 0-1.172 11.252C447.526 161.919 464 208.426 464 256c0 55.567-21.635 107.803-60.919 147.085C363.797 442.367 311.563 464 256 464c-51.26 0-100.505-18.807-138.663-52.956a8 8 0 0 0-10.67 11.922C147.763 459.745 200.797 480 256 480c59.837 0 116.089-23.297 158.394-65.601C456.701 372.095 480 315.84 480 256c0-51.233-17.744-101.319-49.962-141.031zM48 256c0-114.691 93.309-208 208-208 51.26 0 100.504 18.808 138.662 52.959a8 8 0 0 0 11.296-.625 8 8 0 0 0-.625-11.296C364.237 52.256 311.203 32 256 32c-59.829 0-116.08 23.301-158.389 65.611C55.301 139.921 32 196.171 32 256c0 51.239 17.744 101.328 49.963 141.038a7.983 7.983 0 0 0 6.217 2.96 8 8 0 0 0 6.208-13.041C64.474 350.088 48 303.58 48 256z" data-original="#000000" class="dactive-path" data-old_color="#ffffff" fill="#fff"/><path d="M398.655 194.764a8 8 0 0 0-9.89-11.757c-.204.09-.408.18-.612.268a58.67 58.67 0 0 0 4.63-10.676 7.999 7.999 0 0 0-11.702-9.32 93.353 93.353 0 0 1-25.726 10.498c-10.798-9.778-25.002-15.307-39.646-15.307-32.47 0-58.887 26.402-58.887 58.855 0 .928.021 1.854.063 2.776-34.859-4.249-67.035-21.913-89.417-49.384a8 8 0 0 0-13.114 1.026c-5.214 8.949-7.97 19.185-7.97 29.602a58.937 58.937 0 0 0 7.052 28.008 8 8 0 0 0-7.47 7.983v.636c0 17.624 7.908 33.796 20.616 44.719a8 8 0 0 0-2.395 8.497c5.467 17.082 18.25 30.333 34.264 36.714-13.001 6.537-27.355 9.933-42.315 9.933-3.772 0-7.544-.216-11.211-.643a7.999 7.999 0 0 0-5.244 14.68A152.178 152.178 0 0 0 221.996 376c57.454 0 93.424-27.125 113.482-49.88 24.968-28.326 39.288-65.827 39.288-102.89 0-.914-.007-1.804-.022-2.676a110.46 110.46 0 0 0 23.911-25.79zm-36.724 15.406a8.002 8.002 0 0 0-3.311 6.883c.097 1.97.145 3.99.145 6.177 0 33.221-12.863 66.866-35.29 92.31C305.597 335.822 273.479 360 221.996 360c-15.75 0-31.25-2.705-45.896-7.938 17.51-3.161 33.891-10.506 48.153-21.695a8 8 0 0 0-4.788-14.293 42.895 42.895 0 0 1-34.527-18.535 59.487 59.487 0 0 0 11.91-1.951 8 8 0 0 0-.501-15.565c-15.937-3.219-28.377-15.183-32.716-30.254a59.173 59.173 0 0 0 13.119 1.932 8 8 0 0 0 4.708-14.65c-11.942-7.97-19.071-21.318-19.071-35.707 0-3.646.462-7.259 1.363-10.751 26.808 27.682 63.308 44.387 101.994 46.315a8.002 8.002 0 0 0 8.189-9.809 43.065 43.065 0 0 1-1.108-9.775c0-23.63 19.239-42.855 42.887-42.855 11.804 0 23.217 4.931 31.314 13.527a8.002 8.002 0 0 0 7.358 2.367 109.068 109.068 0 0 0 8.986-2.156 43.194 43.194 0 0 1-4.696 3.25 8 8 0 0 0-3.463 9.442 7.995 7.995 0 0 0 8.506 5.367c1.303-.153 2.602-.329 3.897-.529a96.1 96.1 0 0 1-5.683 4.433z" data-original="#000000" class="dactive-path" data-old_color="#ffffff" fill="#fff"/></symbol></svg>